<svg width="57" height="62" viewBox="0 0 57 62" fill="none" xmlns="http://www.w3.org/2000/svg"><g clip-path="url(#clip0_9_290)"><path d="M55.673 18.679C52.6343 15.476 48.5881 13.2257 44.33 12.0401C39.975 10.8272 35.5123 10.8398 31.4462 12.0184C22.145 14.7134 15.8058 22.271 12.7663 30.6217C11.8321 33.1882 11.1955 35.8876 10.8004 38.6222C10.6118 39.923 10.4982 41.2496 10.4526 42.5761C10.4076 43.9087 10.2132 45.5356 10.7979 46.8501C11.0186 47.3468 11.4588 47.5132 11.9559 47.3281C12.5881 47.0924 12.9356 46.5073 13.168 45.9406C13.6571 44.7452 13.7741 43.4147 13.9737 42.1279C14.1483 41.0095 14.2867 39.8818 14.4649 38.7642C14.6394 37.6678 14.8206 36.5715 15.0452 35.4883C15.0958 35.2435 15.1352 34.9903 15.2052 34.7514C15.0228 35.373 15.2579 34.5297 15.295 34.3784C15.428 33.833 15.5716 33.2899 15.7281 32.7527C16.0326 31.7061 16.3851 30.6763 16.7908 29.6685C16.8374 29.5536 16.8864 29.4389 16.932 29.3234C17.1625 28.7453 16.7514 29.7166 16.9169 29.3511C17.0206 29.1236 17.1224 28.895 17.2292 28.6692C17.4855 28.1294 17.7582 27.5986 18.0473 27.0767C18.2668 26.6804 18.4961 26.2905 18.7357 25.9063C18.7929 25.8133 18.8511 25.721 18.9098 25.6301C18.9436 25.5778 19.2495 25.1253 18.9905 25.5013C18.7629 25.8318 18.9754 25.5267 19.0317 25.4426C19.1239 25.3073 19.2182 25.1731 19.3139 25.0386C19.8688 24.258 20.4649 23.5043 21.1022 22.7824C21.2479 22.6171 21.3952 22.4539 21.5451 22.2932C21.607 22.226 21.6905 22.1091 21.7708 22.052C21.3158 22.3724 21.6123 22.2138 21.7431 22.0833C22.0929 21.7311 22.4525 21.3878 22.823 21.0539C23.5421 20.4066 24.3034 19.8065 25.091 19.2313C25.4116 18.9965 25.0964 19.2214 25.0396 19.2624C25.1528 19.1814 25.2711 19.1055 25.3865 19.028C25.5732 18.9024 25.7604 18.7782 25.9502 18.6566C26.3998 18.368 26.8603 18.0935 27.3318 17.833C28.1738 17.3684 29.0505 16.9621 29.9492 16.5862C30.4553 16.3747 29.7525 16.652 30.0647 16.5401C30.1738 16.501 30.2813 16.4598 30.3904 16.4206C30.6352 16.3324 30.8827 16.2491 31.1313 16.1687C31.6294 16.0085 32.136 15.8645 32.6491 15.7355C33.6097 15.4954 34.5941 15.3191 35.5961 15.2081C35.7104 15.1961 35.8237 15.1835 35.9385 15.1729C35.9805 15.1691 36.335 15.1359 36.1372 15.1524C36.4443 15.1258 36.6467 15.1131 36.8361 15.1025C37.3615 15.073 37.8893 15.0564 38.4196 15.0596C39.4745 15.0643 40.5375 15.1348 41.5991 15.274C46.1004 15.8607 50.5311 17.744 53.8096 20.9999C54.8776 22.0592 56.5404 19.5934 55.673 18.679Z" fill="#D03421"></path><path d="M17.5414 33.618C14.9875 38.2507 12.8608 43.1692 11.4789 48.3177C12.2431 48.0252 13.0069 47.7313 13.7711 47.4388C12.9706 44.9313 12.0174 42.4405 10.8262 40.0301C10.2368 38.8392 9.55262 37.671 8.84666 36.5257C8.14858 35.3928 7.4235 34.1652 6.33729 33.3033C6.0048 33.0391 5.4901 33.4939 5.33928 33.6808C5.07703 34.004 4.88754 34.4943 5.03646 34.9323C5.46247 36.1814 6.24942 37.3662 6.88795 38.5548C7.52015 39.733 8.08136 40.9317 8.65169 42.1307C9.78534 44.5099 10.7313 46.9481 11.4449 49.4245C11.5903 49.9277 12.1444 50.0436 12.5651 49.8865C13.1385 49.6733 13.5753 49.0927 13.7372 48.5456C15.1766 43.6533 16.9231 39.0206 19.2912 34.5707C19.5273 34.1266 19.8234 33.1322 19.1417 32.7615C18.4601 32.3908 17.7745 33.1966 17.5419 33.6194L17.5414 33.618Z" fill="#D03421"></path></g><defs><clipPath id="clip0_9_290"><rect width="49.451" height="37.8284" fill="white" transform="translate(56.8569 18.072) rotate(118.538)"></rect></clipPath></defs></svg>